# xmcd
#
# Track frame offsets:
#	150
#	18016
#	40088
#	56054
#	75043
#	90845
#	108949
#	130211
#	162598
#	180719
#	200316
#	212579
#	238171
#	259412
#	291158
#
# Disc length: 4255 seconds
# Revision: 0
# Processed by: cddbd v1.5.2PL0 Copyright (c) Steve Scherf et al.
# Submitted via: dBpowerAMP V12.0
#
DISCID=c1109d0f
DTITLE=Levon Helm - Ramble at the Ryman
DYEAR=2011
DGENRE=Country
TTITLE0=Ophelia
TTITLE1=Back to Memphis
TTITLE2=Fannie Mae
TTITLE3=Baby Scratch My Back
TTITLE4=Evangeline
TTITLE5=No Depression in Heaven
TTITLE6=Wide River to Cross
TTITLE7=Deep Elem Blues
TTITLE8=Anna Lee
TTITLE9=Rag Mama Rag
TTITLE10=Time Out for the Blues
TTITLE11=A Train Robbery
TTITLE12=The Shape I'm In
TTITLE13=Chest Fever
TTITLE14=The Weight
EXTD=
EXTT0=
EXTT1=
EXTT2=
EXTT3=
EXTT4=
EXTT5=
EXTT6=
EXTT7=
EXTT8=
EXTT9=
EXTT10=
EXTT11=
EXTT12=
EXTT13=
EXTT14=
PLAYORDER=
